<svg xmlns="http://www.w3.org/2000/svg" width="150" height="50" viewBox="0 0 150 50"><linearGradient id="a" gradientUnits="userSpaceOnUse" x1="92.452" y1="34.178" x2="92.452" y2="15.694"><stop offset="0" stop-color="#E9E8E9"/><stop offset="1" stop-color="#F2F2F2"/></linearGradient><path fill="url(#a)" d="M42.504 33.976V15.693h2.622l5.246 11.922 5.132-11.922h2.623v18.283h-2.773V22.57h-.05l-3.827 8.796h-2.31L45.34 22.57h-.063v11.407h-2.773zm27.436.05v-1.153h-.05c-.242.45-.606.777-1.092.978-.52.22-1.196.328-2.033.328-1.438-.034-2.526-.418-3.263-1.154-.803-.736-1.204-1.677-1.204-2.824 0-1.087.348-2 1.042-2.734.694-.736 1.72-1.113 3.074-1.13h3.526v-1.38c.008-1.155-.857-1.716-2.6-1.683-.6 0-1.103.067-1.504.2-.394.177-.69.448-.892.816l-2.008-1.582c.97-1.297 2.397-1.928 4.28-1.895 1.58-.016 2.852.293 3.814.93.945.66 1.426 1.78 1.442 3.362v8.922H69.94zm0-4.58v-.953h-3.05c-1.49.042-2.226.57-2.21 1.58 0 .436.194.813.578 1.13.368.344.975.515 1.82.515 1.07.017 1.823-.112 2.26-.39.4-.275.602-.902.602-1.882zm6.732 1.38V15.694h2.622v14.92c0 .603.326.903.98.903h.89v2.46H80.01c-.954 0-1.75-.23-2.384-.696-.637-.465-.954-1.28-.954-2.453zm14.812 3.2v-1.153h-.05c-.243.45-.607.777-1.092.978-.52.22-1.197.328-2.033.328-1.44-.034-2.527-.418-3.264-1.154-.804-.736-1.204-1.677-1.204-2.824 0-1.087.347-2 1.04-2.734.695-.736 1.72-1.113 3.075-1.13h3.526v-1.38c.008-1.155-.857-1.716-2.6-1.683-.6 0-1.103.067-1.504.2-.395.177-.69.448-.893.816l-2.007-1.582c.97-1.297 2.396-1.928 4.278-1.895 1.582-.016 2.853.293 3.814.93.945.66 1.428 1.78 1.443 3.362v8.922h-2.53zm0-4.58v-.953h-3.05c-1.49.042-2.226.57-2.208 1.58 0 .436.19.813.577 1.13.368.344.975.515 1.82.515 1.07.017 1.822-.112 2.258-.39.403-.275.604-.902.604-1.882zm9.656 4.53L96.37 20.95h2.773l3.05 9.124h.05l3.063-9.123h2.772l-4.78 13.026h-2.158zm9.842-15.66v-2.623h2.622v2.623h-2.622zm0 15.66V20.95h2.622v13.026h-2.622zm15.152 0V32.62c-.912 1.005-2.033 1.507-3.363 1.507-.802 0-1.492-.156-2.07-.47-.576-.314-1.05-.718-1.417-1.21-.37-.46-.615-1.008-.74-1.64-.126-.63-.188-1.75-.188-3.355 0-1.59.063-2.696.188-3.32.125-.622.37-1.17.74-1.637.368-.485.84-.89 1.418-1.21s1.27-.484 2.07-.484c.67 0 1.276.143 1.82.428.545.285 1.058.657 1.544 1.117v-6.65h2.622v18.282h-2.622zm-2.56-10.552c-1.238 0-1.98.422-2.23 1.267-.245.847-.37 1.766-.37 2.763 0 1.02.125 1.952.37 2.798.248.846.99 1.268 2.23 1.268 1.212 0 1.942-.438 2.19-1.317.246-.877.37-1.793.37-2.746 0-.93-.124-1.833-.37-2.71-.247-.882-.978-1.32-2.19-1.32zm16.293 10.603v-1.154h-.05c-.243.45-.607.777-1.092.978-.52.22-1.197.328-2.034.328-1.437-.034-2.524-.418-3.26-1.154-.805-.736-1.206-1.677-1.206-2.824 0-1.087.348-2 1.04-2.734.696-.736 1.72-1.113 3.076-1.13h3.526v-1.38c.008-1.155-.857-1.716-2.598-1.683-.603 0-1.104.067-1.506.2-.394.177-.69.448-.892.816l-2.007-1.582c.97-1.297 2.396-1.928 4.278-1.895 1.583-.016 2.854.293 3.816.93.944.66 1.427 1.78 1.442 3.362v8.922h-2.53zm0-4.58v-.954h-3.05c-1.49.042-2.226.57-2.208 1.58 0 .436.19.813.576 1.13.368.344.975.515 1.82.515 1.07.017 1.822-.112 2.258-.39.402-.275.603-.902.603-1.882z"/><g><linearGradient id="b" gradientUnits="userSpaceOnUse" x1="365.495" y1="248.492" x2="365.495" y2="268.87" gradientTransform="matrix(1 0 0 -1 -345.019 284.519)"><stop offset=".17" stop-color="#F29526"/><stop offset=".9" stop-color="#E43A26"/></linearGradient><path fill="url(#b)" d="M10.854 30.653V15.65l9.622 5.373 9.62-5.374v15.003l-9.62 5.374-9.622-5.374z"/><linearGradient id="c" gradientUnits="userSpaceOnUse" x1="365.496" y1="253.864" x2="365.496" y2="275.161" gradientTransform="matrix(1 0 0 -1 -345.019 284.519)"><stop offset="0" stop-color="#B2B3B7"/><stop offset=".07" stop-color="#BCBDC0"/><stop offset=".269" stop-color="#D4D4D6"/><stop offset=".481" stop-color="#E5E5E6"/><stop offset=".712" stop-color="#EFEFEF"/><stop offset="1" stop-color="#F2F2F2"/></linearGradient><path fill="url(#c)" d="M21.338 15.844c-.476.268-1.25.268-1.727 0L8.34 9.472c-.476-.27-.864-.042-.864.503v18.047c0 .547.4 1.188.89 1.426l2.49 1.207V16.647c0-.546.39-.774.865-.51l8.756 4.885 8.755-4.884c.477-.266.867-.036.867.51v14.006l2.49-1.206c.487-.236.89-.88.89-1.426V9.975c0-.545-.39-.772-.863-.503l-11.276 6.372z"/><linearGradient id="d" gradientUnits="userSpaceOnUse" x1="365.495" y1="253.865" x2="365.495" y2="243.878" gradientTransform="matrix(1 0 0 -1 -345.019 284.519)"><stop offset="0" stop-color="#B2B3B7"/><stop offset=".07" stop-color="#BCBDC0"/><stop offset=".269" stop-color="#D4D4D6"/><stop offset=".481" stop-color="#E5E5E6"/><stop offset=".712" stop-color="#EFEFEF"/><stop offset="1" stop-color="#F2F2F2"/></linearGradient><path fill="url(#d)" d="M21.332 40.443c-.477.266-1.255.264-1.73 0l-7.883-4.408c-.478-.267-.867-.93-.868-1.477v-3.904l8.75 4.896c.477.267 1.256.267 1.73 0l8.762-4.895.006 3.905c0 .548-.387 1.21-.863 1.477l-7.903 4.41-.002-.004z"/></g></svg>